<svg xmlns:dc="http://purl.org/dc/elements/1.1/" xmlns:cc="http://creativecommons.org/ns#" xmlns:rdf="http://www.w3.org/1999/02/22-rdf-syntax-ns#" xmlns:svg="http://www.w3.org/2000/svg" xmlns="http://www.w3.org/2000/svg" xmlns:sodipodi="http://sodipodi.sourceforge.net/DTD/sodipodi-0.dtd" xmlns:inkscape="http://www.inkscape.org/namespaces/inkscape" width="792.81177" height="1121.6306" viewBox="1.260751 -183.382520 792.811770 1121.630600" version="1.1" id="svg8" inkscape:version="0.92.0 r" sodipodi:docname="print.svg">
  <sodipodi:namedview id="base" pagecolor="#ffffff" bordercolor="#666666" borderopacity="1.0" inkscape:pageopacity="0.0" inkscape:pageshadow="2" inkscape:zoom="1.28" inkscape:cx="347.74919" inkscape:cy="796.06106" inkscape:document-units="pt" inkscape:current-layer="layer1" showgrid="false" inkscape:snap-text-baseline="true" inkscape:window-width="1920" inkscape:window-height="1044" inkscape:window-x="0" inkscape:window-y="0" inkscape:window-maximized="1" inkscape:snap-grids="true" units="mm" inkscape:snap-bbox="true" inkscape:snap-bbox-edge-midpoints="true" inkscape:snap-page="true" inkscape:snap-object-midpoints="true" inkscape:snap-bbox-midpoints="true" showguides="false" inkscape:bbox-paths="true"/>
  <defs id="defs2"/>
  <metadata id="metadata5">
    <rdf:RDF>
      <cc:Work rdf:about="">
        <dc:format>image/svg+xml</dc:format>
        <dc:type rdf:resource="http://purl.org/dc/dcmitype/StillImage"/>
        <dc:title/>
      </cc:Work>
    </rdf:RDF>
  </metadata>
  <g inkscape:label="Layer 1" inkscape:groupmode="layer" id="layer1" transform="translate(0,501.56682)">
    <g xmlns:xlink="http://www.w3.org/1999/xlink" xmlns="http://www.w3.org/2000/svg" transform="translate(95, -100)" version="1.1" style="font-family:signika, serif;font-size:12px;" width="600" height="400"><desc>Created with Highstock 4.2.7</desc><defs><clipPath id="highcharts-58"><rect x="0" y="0" width="556" height="281"/></clipPath><clipPath id="highcharts-59"><rect x="0" y="0" width="556" height="281"/></clipPath></defs><g class="highcharts-range-selector-buttons" transform="translate(0,10)"><text x="10" y="15" style="color:#666;fill:#666;">Zoom</text><g class="highcharts-button" states="[object Object]" style="cursor:pointer;text-align:center;" transform="translate(46,0)"><rect x="0.5" y="0.5" width="32" height="22" fill="white" stroke="#C0C0C8" stroke-width="1" rx="0" ry="0"/><text x="9.5" style="font-weight:normal;color:#444;fill:#444;" y="14">1h</text></g><g class="highcharts-button" states="[object Object]" style="cursor:pointer;text-align:center;" transform="translate(83,0)"><rect x="0.5" y="0.5" width="32" height="22" fill="#D0D0D8" stroke="#68A" stroke-width="1" rx="0" ry="0"/><text x="6.5" style="font-weight:bold;color:black;fill:black;" y="14">12h</text></g><g class="highcharts-button" states="[object Object]" style="cursor:pointer;text-align:center;" transform="translate(120,0)"><rect x="0.5" y="0.5" width="32" height="22" fill="white" stroke="#C0C0C8" stroke-width="1" rx="0" ry="0"/><text x="9.5" style="font-weight:normal;color:#444;fill:#444;" y="14">1d</text></g><g class="highcharts-button" states="[object Object]" style="cursor:pointer;text-align:center;" transform="translate(157,0)"><rect x="0.5" y="0.5" width="32" height="22" fill="white" stroke="#C0C0C8" stroke-width="1" rx="0" ry="0"/><text x="7.5" style="font-weight:normal;color:#444;fill:#444;" y="14">1m</text></g><g class="highcharts-button" states="[object Object]" style="cursor:pointer;text-align:center;" transform="translate(194,0)"><rect x="0.5" y="0.5" width="32" height="22" fill="white" stroke="#C0C0C8" stroke-width="1" rx="0" ry="0"/><text x="7.5" style="font-weight:normal;color:#444;fill:#444;" y="14">3m</text></g></g><g class="highcharts-input-group" transform="translate(331,10)" visibility="visible"><g style="fill:#666;" transform="translate(0,0)"><text x="2" style="font-size:12px;font-family:signika, serif;color:#666;fill:#666;" y="14">From</text></g><g style="text-align:center;" transform="translate(38,0)"><rect x="0.5" y="0.5" width="94" height="21" fill="none" stroke="silver" stroke-width="1"/><text x="14.5" style="font-size:12px;font-family:signika, serif;color:#444;fill:#444;" y="14"><tspan>Feb 15, 2017</tspan></text></g><g style="fill:#666;" transform="translate(142,0)"><text x="2" style="font-size:12px;font-family:signika, serif;color:#666;fill:#666;" y="14">To</text></g><g style="text-align:center;" transform="translate(165,0)"><rect x="0.5" y="0.5" width="94" height="21" fill="none" stroke="silver" stroke-width="1"/><text x="14.5" style="font-size:12px;font-family:signika, serif;color:#444;fill:#444;" y="14"><tspan>Feb 15, 2017</tspan></text></g></g><g class="highcharts-grid"/><g class="highcharts-grid"><path fill="none" d="M 10 326.5 L 566 326.5" stroke="#D8D8D8" stroke-width="1" opacity="1"/><path fill="none" d="M 10 275.5 L 566 275.5" stroke="#D8D8D8" stroke-width="1" opacity="1"/><path fill="none" d="M 10 224.5 L 566 224.5" stroke="#D8D8D8" stroke-width="1" opacity="1"/><path fill="none" d="M 10 173.5 L 566 173.5" stroke="#D8D8D8" stroke-width="1" opacity="1"/><path fill="none" d="M 10 122.5 L 566 122.5" stroke="#D8D8D8" stroke-width="1" opacity="1"/><path fill="none" d="M 10 71.5 L 566 71.5" stroke="#D8D8D8" stroke-width="1" opacity="1"/></g><g class="highcharts-axis"><path fill="none" d="M -50650.5 326 L -50650.5 336" stroke="#C0D0E0" stroke-width="1" opacity="1"/><path fill="none" d="M 10 326.5 L 566 326.5" stroke="#C0D0E0" stroke-width="1"/></g><g class="highcharts-axis"/><g class="highcharts-highcharts-scrollbar" transform="translate(578,46)"><rect height="281" width="14" y="-0.5" x="-0.5" fill="#eeeeee" stroke="#eeeeee" stroke-width="1" rx="0" ry="0"/><g transform="translate(0,14)"><rect height="253" width="14" y="-0.5" x="-0.5" fill="#bfc8d1" stroke="#bfc8d1" stroke-width="1" rx="0" ry="0"/><path fill="none" d="M 3.5 -3 L 9.333333333333334 -3 M 3.5 0 L 9.333333333333334 0 M 3.5 3 L 9.333333333333334 3" stroke="#666" stroke-width="1" transform="translate(0,126)"/></g><g><rect x="-0.5" y="-0.5" width="14" height="14" stroke="#bbb" stroke-width="1" fill="#ebe7e8"/><path fill="#666" d="M 4 8 L 10 8 L 7 5"/></g><g transform="translate(0,267)"><rect x="-0.5" y="-0.5" width="14" height="14" stroke="#bbb" stroke-width="1" fill="#ebe7e8"/><path fill="#666" d="M 4 6 L 10 6 L 7 9"/></g></g><g class="highcharts-highcharts-scrollbar" transform="translate(10,368)"><rect height="14" width="556" y="-0.5" x="-0.5" fill="#eeeeee" stroke="#C0C0C8" stroke-width="1" rx="0" ry="0"/><g transform="translate(536,0)"><rect height="14" width="6" y="-0.5" x="-0.5" fill="#bfc8d1" stroke="#bfc8d1" stroke-width="1" rx="0" ry="0"/><path fill="none" d="M -3 3.5 L -3 9.333333333333334 M 0 3.5 L 0 9.333333333333334 M 3 3.5 L 3 9.333333333333334" stroke="#666" stroke-width="1" transform="translate(2.5,0)" visibility="hidden"/></g><g><rect x="-0.5" y="-0.5" width="14" height="14" stroke="#bbb" stroke-width="1" fill="#ebe7e8"/><path fill="#666" d="M 8 4 L 8 10 L 5 7"/></g><g transform="translate(542,0)"><rect x="-0.5" y="-0.5" width="14" height="14" stroke="#bbb" stroke-width="1" fill="#ebe7e8"/><path fill="#666" d="M 6 4 L 6 10 L 9 7"/></g></g><g class="highcharts-series-group"><g class="highcharts-series highcharts-series-0" transform="translate(10,45) scale(1 1)" clip-path="url(#highcharts-59)"><path fill="none" d="M -100000 281 C -100000 281 556 281 556 281" stroke="black" stroke-width="5" stroke-linejoin="round" stroke-linecap="round" stroke-opacity="0.049999999999999996" transform="translate(1, 1)"/><path fill="none" d="M -100000 281 C -100000 281 556 281 556 281" stroke="black" stroke-width="3" stroke-linejoin="round" stroke-linecap="round" stroke-opacity="0.09999999999999999" transform="translate(1, 1)"/><path fill="none" d="M -100000 281 C -100000 281 556 281 556 281" stroke="black" stroke-width="1" stroke-linejoin="round" stroke-linecap="round" stroke-opacity="0.15" transform="translate(1, 1)"/><path fill="none" d="M -100000 281 C -100000 281 556 281 556 281" stroke="#657080" stroke-width="0.5" stroke-linejoin="round" stroke-linecap="round"/></g><g class="highcharts-markers highcharts-series-0" transform="translate(10,45) scale(1 1)" clip-path="none"/></g><g class="highcharts-axis-labels highcharts-xaxis-labels"><text x="-25180.760824305555" style="color:#6e6e70;cursor:default;font-size:11px;fill:#6e6e70;width:546px;text-overflow:clip;" text-anchor="middle" transform="translate(0,0)" y="345" opacity="1"><tspan>2016</tspan></text></g><g class="highcharts-axis-labels highcharts-yaxis-labels"><text x="566" style="color:#6e6e70;cursor:default;font-size:11px;fill:#6e6e70;width:188px;text-overflow:clip;" text-anchor="end" transform="translate(0,0)" y="324" opacity="1"><tspan>0</tspan></text><text x="566" style="color:#6e6e70;cursor:default;font-size:11px;fill:#6e6e70;width:188px;text-overflow:clip;" text-anchor="end" transform="translate(0,0)" y="273" opacity="1"><tspan>0.1</tspan></text><text x="566" style="color:#6e6e70;cursor:default;font-size:11px;fill:#6e6e70;width:188px;text-overflow:clip;" text-anchor="end" transform="translate(0,0)" y="222" opacity="1"><tspan>0.2</tspan></text><text x="566" style="color:#6e6e70;cursor:default;font-size:11px;fill:#6e6e70;width:188px;text-overflow:clip;" text-anchor="end" transform="translate(0,0)" y="171" opacity="1"><tspan>0.3</tspan></text><text x="566" style="color:#6e6e70;cursor:default;font-size:11px;fill:#6e6e70;width:188px;text-overflow:clip;" text-anchor="end" transform="translate(0,0)" y="120" opacity="1"><tspan>0.4</tspan></text><text x="0" style="color:#6e6e70;cursor:default;font-size:11px;fill:#6e6e70;width:188px;text-overflow:clip;" text-anchor="end" transform="translate(0,0)" y="-9999"><tspan>0.5</tspan></text></g><g class="highcharts-tooltip" display="none" style="cursor:default;padding:0;pointer-events:none;white-space:nowrap;" transform="translate(0,0)"><path fill="none" d="M 3 0 L 13 0 C 16 0 16 0 16 3 L 16 13 C 16 16 16 16 13 16 L 3 16 C 0 16 0 16 0 13 L 0 3 C 0 0 0 0 3 0" stroke="black" stroke-opacity="0.049999999999999996" stroke-width="5" transform="translate(1, 1)"/><path fill="none" d="M 3 0 L 13 0 C 16 0 16 0 16 3 L 16 13 C 16 16 16 16 13 16 L 3 16 C 0 16 0 16 0 13 L 0 3 C 0 0 0 0 3 0" stroke="black" stroke-opacity="0.09999999999999999" stroke-width="3" transform="translate(1, 1)"/><path fill="none" d="M 3 0 L 13 0 C 16 0 16 0 16 3 L 16 13 C 16 16 16 16 13 16 L 3 16 C 0 16 0 16 0 13 L 0 3 C 0 0 0 0 3 0" stroke="black" stroke-opacity="0.15" stroke-width="1" transform="translate(1, 1)"/><path fill="rgb(249, 249, 249)" fill-opacity=" .85" d="M 3 0 L 13 0 C 16 0 16 0 16 3 L 16 13 C 16 16 16 16 13 16 L 3 16 C 0 16 0 16 0 13 L 0 3 C 0 0 0 0 3 0"/><text x="8" style="font-size:12px;color:#333333;fill:#333333;" y="20"/></g></g>
    <g xmlns:xlink="http://www.w3.org/1999/xlink" xmlns="http://www.w3.org/2000/svg" transform="translate(95, -560)" version="1.1" style="font-family:signika, serif;font-size:12px;" width="600" height="400"><desc>Created with Highstock 4.2.7</desc><defs><clipPath id="highcharts-55"><rect x="0" y="0" width="556" height="281"/></clipPath><clipPath id="highcharts-56"><rect x="0" y="0" width="556" height="281"/></clipPath></defs><g class="highcharts-range-selector-buttons" transform="translate(0,10)"><text x="10" y="15" style="color:#666;fill:#666;">Zoom</text><g class="highcharts-button" states="[object Object]" style="cursor:pointer;text-align:center;" transform="translate(46,0)"><rect x="0.5" y="0.5" width="32" height="22" fill="white" stroke="#C0C0C8" stroke-width="1" rx="0" ry="0"/><text x="9.5" style="font-weight:normal;color:#444;fill:#444;" y="14">1h</text></g><g class="highcharts-button" states="[object Object]" style="cursor:pointer;text-align:center;" transform="translate(83,0)"><rect x="0.5" y="0.5" width="32" height="22" fill="#D0D0D8" stroke="#68A" stroke-width="1" rx="0" ry="0"/><text x="6.5" style="font-weight:bold;color:black;fill:black;" y="14">12h</text></g><g class="highcharts-button" states="[object Object]" style="cursor:pointer;text-align:center;" transform="translate(120,0)"><rect x="0.5" y="0.5" width="32" height="22" fill="white" stroke="#C0C0C8" stroke-width="1" rx="0" ry="0"/><text x="9.5" style="font-weight:normal;color:#444;fill:#444;" y="14">1d</text></g><g class="highcharts-button" states="[object Object]" style="cursor:pointer;text-align:center;" transform="translate(157,0)"><rect x="0.5" y="0.5" width="32" height="22" fill="white" stroke="#C0C0C8" stroke-width="1" rx="0" ry="0"/><text x="7.5" style="font-weight:normal;color:#444;fill:#444;" y="14">1m</text></g><g class="highcharts-button" states="[object Object]" style="cursor:pointer;text-align:center;" transform="translate(194,0)"><rect x="0.5" y="0.5" width="32" height="22" fill="white" stroke="#C0C0C8" stroke-width="1" rx="0" ry="0"/><text x="7.5" style="font-weight:normal;color:#444;fill:#444;" y="14">3m</text></g></g><g class="highcharts-input-group" transform="translate(331,10)" visibility="visible"><g style="fill:#666;" transform="translate(0,0)"><text x="2" style="font-size:12px;font-family:signika, serif;color:#666;fill:#666;" y="14">From</text></g><g style="text-align:center;" transform="translate(38,0)"><rect x="0.5" y="0.5" width="94" height="21" fill="none" stroke="silver" stroke-width="1"/><text x="14.5" style="font-size:12px;font-family:signika, serif;color:#444;fill:#444;" y="14"><tspan>Feb 15, 2017</tspan></text></g><g style="fill:#666;" transform="translate(142,0)"><text x="2" style="font-size:12px;font-family:signika, serif;color:#666;fill:#666;" y="14">To</text></g><g style="text-align:center;" transform="translate(165,0)"><rect x="0.5" y="0.5" width="94" height="21" fill="none" stroke="silver" stroke-width="1"/><text x="14.5" style="font-size:12px;font-family:signika, serif;color:#444;fill:#444;" y="14"><tspan>Feb 15, 2017</tspan></text></g></g><g class="highcharts-grid"/><g class="highcharts-grid"><path fill="none" d="M 10 326.5 L 566 326.5" stroke="#D8D8D8" stroke-width="1" opacity="1"/><path fill="none" d="M 10 275.5 L 566 275.5" stroke="#D8D8D8" stroke-width="1" opacity="1"/><path fill="none" d="M 10 224.5 L 566 224.5" stroke="#D8D8D8" stroke-width="1" opacity="1"/><path fill="none" d="M 10 173.5 L 566 173.5" stroke="#D8D8D8" stroke-width="1" opacity="1"/><path fill="none" d="M 10 122.5 L 566 122.5" stroke="#D8D8D8" stroke-width="1" opacity="1"/><path fill="none" d="M 10 71.5 L 566 71.5" stroke="#D8D8D8" stroke-width="1" opacity="1"/></g><g class="highcharts-axis"><path fill="none" d="M -50650.5 326 L -50650.5 336" stroke="#C0D0E0" stroke-width="1" opacity="1"/><path fill="none" d="M 10 326.5 L 566 326.5" stroke="#C0D0E0" stroke-width="1"/></g><g class="highcharts-axis"/><g class="highcharts-highcharts-scrollbar" transform="translate(578,46)"><rect height="281" width="14" y="-0.5" x="-0.5" fill="#eeeeee" stroke="#eeeeee" stroke-width="1" rx="0" ry="0"/><g transform="translate(0,14)"><rect height="253" width="14" y="-0.5" x="-0.5" fill="#bfc8d1" stroke="#bfc8d1" stroke-width="1" rx="0" ry="0"/><path fill="none" d="M 3.5 -3 L 9.333333333333334 -3 M 3.5 0 L 9.333333333333334 0 M 3.5 3 L 9.333333333333334 3" stroke="#666" stroke-width="1" transform="translate(0,126)"/></g><g><rect x="-0.5" y="-0.5" width="14" height="14" stroke="#bbb" stroke-width="1" fill="#ebe7e8"/><path fill="#666" d="M 4 8 L 10 8 L 7 5"/></g><g transform="translate(0,267)"><rect x="-0.5" y="-0.5" width="14" height="14" stroke="#bbb" stroke-width="1" fill="#ebe7e8"/><path fill="#666" d="M 4 6 L 10 6 L 7 9"/></g></g><g class="highcharts-highcharts-scrollbar" transform="translate(10,368)"><rect height="14" width="556" y="-0.5" x="-0.5" fill="#eeeeee" stroke="#C0C0C8" stroke-width="1" rx="0" ry="0"/><g transform="translate(536,0)"><rect height="14" width="6" y="-0.5" x="-0.5" fill="#bfc8d1" stroke="#bfc8d1" stroke-width="1" rx="0" ry="0"/><path fill="none" d="M -3 3.5 L -3 9.333333333333334 M 0 3.5 L 0 9.333333333333334 M 3 3.5 L 3 9.333333333333334" stroke="#666" stroke-width="1" transform="translate(2.5,0)" visibility="hidden"/></g><g><rect x="-0.5" y="-0.5" width="14" height="14" stroke="#bbb" stroke-width="1" fill="#ebe7e8"/><path fill="#666" d="M 8 4 L 8 10 L 5 7"/></g><g transform="translate(542,0)"><rect x="-0.5" y="-0.5" width="14" height="14" stroke="#bbb" stroke-width="1" fill="#ebe7e8"/><path fill="#666" d="M 6 4 L 6 10 L 9 7"/></g></g><g class="highcharts-series-group"><g class="highcharts-series highcharts-series-0" transform="translate(10,45) scale(1 1)" clip-path="url(#highcharts-56)"><path fill="none" d="M -100000 281 C -100000 281 556 281 556 281" stroke="black" stroke-width="5" stroke-linejoin="round" stroke-linecap="round" stroke-opacity="0.049999999999999996" transform="translate(1, 1)"/><path fill="none" d="M -100000 281 C -100000 281 556 281 556 281" stroke="black" stroke-width="3" stroke-linejoin="round" stroke-linecap="round" stroke-opacity="0.09999999999999999" transform="translate(1, 1)"/><path fill="none" d="M -100000 281 C -100000 281 556 281 556 281" stroke="black" stroke-width="1" stroke-linejoin="round" stroke-linecap="round" stroke-opacity="0.15" transform="translate(1, 1)"/><path fill="none" d="M -100000 281 C -100000 281 556 281 556 281" stroke="#657080" stroke-width="0.5" stroke-linejoin="round" stroke-linecap="round"/></g><g class="highcharts-markers highcharts-series-0" transform="translate(10,45) scale(1 1)" clip-path="none"/></g><g class="highcharts-axis-labels highcharts-xaxis-labels"><text x="-25180.760824305555" style="color:#6e6e70;cursor:default;font-size:11px;fill:#6e6e70;width:546px;text-overflow:clip;" text-anchor="middle" transform="translate(0,0)" y="345" opacity="1"><tspan>2016</tspan></text></g><g class="highcharts-axis-labels highcharts-yaxis-labels"><text x="566" style="color:#6e6e70;cursor:default;font-size:11px;fill:#6e6e70;width:188px;text-overflow:clip;" text-anchor="end" transform="translate(0,0)" y="324" opacity="1"><tspan>0</tspan></text><text x="566" style="color:#6e6e70;cursor:default;font-size:11px;fill:#6e6e70;width:188px;text-overflow:clip;" text-anchor="end" transform="translate(0,0)" y="273" opacity="1"><tspan>0.1</tspan></text><text x="566" style="color:#6e6e70;cursor:default;font-size:11px;fill:#6e6e70;width:188px;text-overflow:clip;" text-anchor="end" transform="translate(0,0)" y="222" opacity="1"><tspan>0.2</tspan></text><text x="566" style="color:#6e6e70;cursor:default;font-size:11px;fill:#6e6e70;width:188px;text-overflow:clip;" text-anchor="end" transform="translate(0,0)" y="171" opacity="1"><tspan>0.3</tspan></text><text x="566" style="color:#6e6e70;cursor:default;font-size:11px;fill:#6e6e70;width:188px;text-overflow:clip;" text-anchor="end" transform="translate(0,0)" y="120" opacity="1"><tspan>0.4</tspan></text><text x="0" style="color:#6e6e70;cursor:default;font-size:11px;fill:#6e6e70;width:188px;text-overflow:clip;" text-anchor="end" transform="translate(0,0)" y="-9999"><tspan>0.5</tspan></text></g><g class="highcharts-tooltip" display="none" style="cursor:default;padding:0;pointer-events:none;white-space:nowrap;" transform="translate(0,0)"><path fill="none" d="M 3 0 L 13 0 C 16 0 16 0 16 3 L 16 13 C 16 16 16 16 13 16 L 3 16 C 0 16 0 16 0 13 L 0 3 C 0 0 0 0 3 0" stroke="black" stroke-opacity="0.049999999999999996" stroke-width="5" transform="translate(1, 1)"/><path fill="none" d="M 3 0 L 13 0 C 16 0 16 0 16 3 L 16 13 C 16 16 16 16 13 16 L 3 16 C 0 16 0 16 0 13 L 0 3 C 0 0 0 0 3 0" stroke="black" stroke-opacity="0.09999999999999999" stroke-width="3" transform="translate(1, 1)"/><path fill="none" d="M 3 0 L 13 0 C 16 0 16 0 16 3 L 16 13 C 16 16 16 16 13 16 L 3 16 C 0 16 0 16 0 13 L 0 3 C 0 0 0 0 3 0" stroke="black" stroke-opacity="0.15" stroke-width="1" transform="translate(1, 1)"/><path fill="rgb(249, 249, 249)" fill-opacity=" .85" d="M 3 0 L 13 0 C 16 0 16 0 16 3 L 16 13 C 16 16 16 16 13 16 L 3 16 C 0 16 0 16 0 13 L 0 3 C 0 0 0 0 3 0"/><text x="8" style="font-size:12px;color:#333333;fill:#333333;" y="20"/></g></g>
    <rect style="fill:#ececec;stroke-width:0.52661681" id="rect3688" width="763.53955" height="57.150002" x="15.896841" y="-669.22736"/>
    <text xml:space="preserve" style="font-style:normal;font-weight:normal;font-size:10.58333302px;line-height:6.61458302px;font-family:sans-serif;letter-spacing:0px;word-spacing:0px;fill:#000000;fill-opacity:1;stroke:none;stroke-width:0.26458332px;stroke-linecap:butt;stroke-linejoin:miter;stroke-opacity:1" x="66.145836" y="18.620535" id="text3737"><tspan sodipodi:role="line" id="tspan3735" x="66.145836" y="24.677013" style="stroke-width:0.26458332px"/></text>
    <rect style="fill:none;stroke:#000000;stroke-width:0.92068338;stroke-linecap:round;stroke-linejoin:round;stroke-miterlimit:4;stroke-dasharray:none" id="rect3747" width="762.6189" height="56.229313" x="16.357185" y="-668.76703"/>
    <path style="fill:none;fill-rule:evenodd;stroke:#000000;stroke-width:0.73393285;stroke-linecap:butt;stroke-linejoin:miter;stroke-miterlimit:4;stroke-dasharray:none;stroke-opacity:1" d="m 779.4364,-647.95381 -763.539553,-6.2e-4" id="path4576" inkscape:connector-curvature="0"/>
    <path style="fill:none;fill-rule:evenodd;stroke:#000000;stroke-width:0.40582404;stroke-linecap:butt;stroke-linejoin:miter;stroke-miterlimit:4;stroke-dasharray:none;stroke-opacity:1" d="m 458.60174,-669.22711 -0.0244,36.30566" id="path4578" inkscape:connector-curvature="0"/>
    <text xml:space="preserve" style="font-style:normal;font-variant:normal;font-weight:normal;font-stretch:normal;font-size:6.77333355px;line-height:7.9375px;font-family:sans-serif;-inkscape-font-specification:'sans-serif, Normal';font-variant-ligatures:normal;font-variant-caps:normal;font-variant-numeric:normal;font-feature-settings:normal;text-align:start;letter-spacing:0px;word-spacing:0px;writing-mode:lr-tb;text-anchor:start;fill:#000000;fill-opacity:1;stroke:none;stroke-width:0.31750003px;stroke-linecap:butt;stroke-linejoin:miter;stroke-opacity:1" x="28.830894" y="-655.12811" id="text4582"><tspan sodipodi:role="line" id="tspan4580" x="28.830894" y="-655.12811" style="font-style:normal;font-variant:normal;font-weight:normal;font-stretch:normal;font-size:6.77333355px;font-family:sans-serif;-inkscape-font-specification:'sans-serif, Normal';font-variant-ligatures:normal;font-variant-caps:normal;font-variant-numeric:normal;font-feature-settings:normal;text-align:start;writing-mode:lr-tb;text-anchor:start;stroke-width:0.31750003px">Tester:</tspan></text>
    <text xml:space="preserve" style="font-style:normal;font-variant:normal;font-weight:normal;font-stretch:normal;font-size:6.77333355px;line-height:7.9375px;font-family:sans-serif;-inkscape-font-specification:'sans-serif, Normal';font-variant-ligatures:normal;font-variant-caps:normal;font-variant-numeric:normal;font-feature-settings:normal;text-align:start;letter-spacing:0px;word-spacing:0px;writing-mode:lr-tb;text-anchor:start;fill:#000000;fill-opacity:1;stroke:none;stroke-width:0.31750003px;stroke-linecap:butt;stroke-linejoin:miter;stroke-opacity:1" x="28.313026" y="-637.93347" id="text4586"><tspan sodipodi:role="line" id="tspan4584" x="28.313026" y="-637.93347" style="font-style:normal;font-variant:normal;font-weight:normal;font-stretch:normal;font-size:6.77333355px;font-family:sans-serif;-inkscape-font-specification:'sans-serif, Normal';font-variant-ligatures:normal;font-variant-caps:normal;font-variant-numeric:normal;font-feature-settings:normal;text-align:start;writing-mode:lr-tb;text-anchor:start;stroke-width:0.31750003px">Process:</tspan></text>
    <text xml:space="preserve" style="font-style:normal;font-variant:normal;font-weight:normal;font-stretch:normal;font-size:6.77333355px;line-height:7.9375px;font-family:sans-serif;-inkscape-font-specification:'sans-serif, Normal';font-variant-ligatures:normal;font-variant-caps:normal;font-variant-numeric:normal;font-feature-settings:normal;text-align:start;letter-spacing:0px;word-spacing:0px;writing-mode:lr-tb;text-anchor:start;fill:#000000;fill-opacity:1;stroke:none;stroke-width:0.31750003px;stroke-linecap:butt;stroke-linejoin:miter;stroke-opacity:1" x="473.74924" y="-655.12811" id="text4590"><tspan sodipodi:role="line" id="tspan4588" x="473.74924" y="-655.12811" style="font-style:normal;font-variant:normal;font-weight:normal;font-stretch:normal;font-size:6.77333355px;font-family:sans-serif;-inkscape-font-specification:'sans-serif, Normal';font-variant-ligatures:normal;font-variant-caps:normal;font-variant-numeric:normal;font-feature-settings:normal;text-align:start;writing-mode:lr-tb;text-anchor:start;stroke-width:0.31750003px">Company:</tspan></text>
    <text xml:space="preserve" style="font-style:normal;font-variant:normal;font-weight:normal;font-stretch:normal;font-size:6.77333355px;line-height:7.9375px;font-family:sans-serif;-inkscape-font-specification:'sans-serif, Normal';font-variant-ligatures:normal;font-variant-caps:normal;font-variant-numeric:normal;font-feature-settings:normal;text-align:start;letter-spacing:0px;word-spacing:0px;writing-mode:lr-tb;text-anchor:start;fill:#000000;fill-opacity:1;stroke:none;stroke-width:0.31750003px;stroke-linecap:butt;stroke-linejoin:miter;stroke-opacity:1" x="474.11249" y="-637.93347" id="text4594"><tspan sodipodi:role="line" id="tspan4592" x="474.11249" y="-637.93347" style="font-style:normal;font-variant:normal;font-weight:normal;font-stretch:normal;font-size:6.77333355px;font-family:sans-serif;-inkscape-font-specification:'sans-serif, Normal';font-variant-ligatures:normal;font-variant-caps:normal;font-variant-numeric:normal;font-feature-settings:normal;text-align:start;writing-mode:lr-tb;text-anchor:start;stroke-width:0.31750003px">Number:</tspan></text>
    <text xml:space="preserve" style="font-style:normal;font-variant:normal;font-weight:normal;font-stretch:normal;font-size:6.77333355px;line-height:7.9375px;font-family:sans-serif;-inkscape-font-specification:'sans-serif, Normal';font-variant-ligatures:normal;font-variant-caps:normal;font-variant-numeric:normal;font-feature-settings:normal;text-align:start;letter-spacing:0px;word-spacing:0px;writing-mode:lr-tb;text-anchor:start;fill:#4d4d4d;fill-opacity:1;stroke:none;stroke-width:0.31750003px;stroke-linecap:butt;stroke-linejoin:miter;stroke-opacity:1" x="81.870453" y="-655.12811" id="text4598"><tspan id="tspan4581" sodipodi:role="line" x="81.870453" y="-655.12811" style="font-style:normal;font-variant:normal;font-weight:normal;font-stretch:normal;font-size:6.77333355px;font-family:sans-serif;-inkscape-font-specification:'sans-serif, Normal';font-variant-ligatures:normal;font-variant-caps:normal;font-variant-numeric:normal;font-feature-settings:normal;text-align:start;writing-mode:lr-tb;text-anchor:start;fill:#4d4d4d;stroke-width:0.31750003px">undefined</tspan></text>
    <text xml:space="preserve" style="font-style:normal;font-variant:normal;font-weight:normal;font-stretch:normal;font-size:6.77333319px;line-height:7.9375px;font-family:sans-serif;-inkscape-font-specification:'sans-serif, Normal';font-variant-ligatures:normal;font-variant-caps:normal;font-variant-numeric:normal;font-feature-settings:normal;text-align:start;letter-spacing:0px;word-spacing:0px;writing-mode:lr;text-anchor:start;fill:#4d4d4d;fill-opacity:1;stroke:none;stroke-width:0.31750003px;stroke-linecap:butt;stroke-linejoin:miter;stroke-opacity:1;" x="81.870453" y="-637.93347" id="text4602"><tspan sodipodi:role="line" id="tspan5554">undefined</tspan><tspan sodipodi:role="line" id="tspan5556"/></text>
    <text xml:space="preserve" style="font-style:normal;font-variant:normal;font-weight:normal;font-stretch:normal;font-size:6.77333355px;line-height:7.9375px;font-family:sans-serif;-inkscape-font-specification:'sans-serif, Normal';font-variant-ligatures:normal;font-variant-caps:normal;font-variant-numeric:normal;font-feature-settings:normal;text-align:start;letter-spacing:0px;word-spacing:0px;writing-mode:lr-tb;text-anchor:start;fill:#4d4d4d;fill-opacity:1;stroke:none;stroke-width:0.31750003px;stroke-linecap:butt;stroke-linejoin:miter;stroke-opacity:1" x="519.81396" y="-655.12811" id="text4606"><tspan sodipodi:role="line" id="tspan4604" x="519.81396" y="-655.12811" style="font-style:normal;font-variant:normal;font-weight:normal;font-stretch:normal;font-size:6.77333355px;font-family:sans-serif;-inkscape-font-specification:'sans-serif, Normal';font-variant-ligatures:normal;font-variant-caps:normal;font-variant-numeric:normal;font-feature-settings:normal;text-align:start;writing-mode:lr-tb;text-anchor:start;fill:#4d4d4d;stroke-width:0.31750003px">undefined</tspan></text>
    <text xml:space="preserve" style="font-style:normal;font-variant:normal;font-weight:normal;font-stretch:normal;font-size:6.77333355px;line-height:7.9375px;font-family:sans-serif;-inkscape-font-specification:'sans-serif, Normal';font-variant-ligatures:normal;font-variant-caps:normal;font-variant-numeric:normal;font-feature-settings:normal;text-align:start;letter-spacing:0px;word-spacing:0px;writing-mode:lr-tb;text-anchor:start;fill:#4d4d4d;fill-opacity:1;stroke:none;stroke-width:0.31750003px;stroke-linecap:butt;stroke-linejoin:miter;stroke-opacity:1" x="519.81396" y="-637.93347" id="text4610"><tspan sodipodi:role="line" id="tspan4608" x="519.81396" y="-637.93347" style="font-style:normal;font-variant:normal;font-weight:normal;font-stretch:normal;font-size:6.77333355px;font-family:sans-serif;-inkscape-font-specification:'sans-serif, Normal';font-variant-ligatures:normal;font-variant-caps:normal;font-variant-numeric:normal;font-feature-settings:normal;text-align:start;writing-mode:lr-tb;text-anchor:start;fill:#4d4d4d;stroke-width:0.31750003px">f4852s
</tspan><tspan sodipodi:role="line" x="519.81396" y="-629.99597" style="font-style:normal;font-variant:normal;font-weight:normal;font-stretch:normal;font-size:6.77333355px;font-family:sans-serif;-inkscape-font-specification:'sans-serif, Normal';font-variant-ligatures:normal;font-variant-caps:normal;font-variant-numeric:normal;font-feature-settings:normal;text-align:start;writing-mode:lr-tb;text-anchor:start;fill:#4d4d4d;stroke-width:0.31750003px" id="tspan4612"/></text>
    <path style="fill:none;fill-rule:evenodd;stroke:#000000;stroke-width:0.73393285;stroke-linecap:butt;stroke-linejoin:miter;stroke-miterlimit:4;stroke-dasharray:none;stroke-opacity:1" d="m 779.4364,-632.55364 -763.539553,-6.2e-4" id="path4576-1" inkscape:connector-curvature="0"/>
    <text xml:space="preserve" style="font-style:normal;font-variant:normal;font-weight:normal;font-stretch:normal;font-size:6.77333355px;line-height:7.9375px;font-family:sans-serif;-inkscape-font-specification:'sans-serif, Normal';font-variant-ligatures:normal;font-variant-caps:normal;font-variant-numeric:normal;font-feature-settings:normal;text-align:start;letter-spacing:0px;word-spacing:0px;writing-mode:lr-tb;text-anchor:start;fill:#000000;fill-opacity:1;stroke:none;stroke-width:0.31750003px;stroke-linecap:butt;stroke-linejoin:miter;stroke-opacity:1" x="27.161812" y="-620.43872" id="text4586-4"><tspan sodipodi:role="line" id="tspan4647" x="27.161812" y="-620.43872" style="stroke-width:0.31750003px">Time Range:</tspan></text>
    <text xml:space="preserve" style="font-style:normal;font-variant:normal;font-weight:normal;font-stretch:normal;font-size:6.77333355px;line-height:7.9375px;font-family:sans-serif;-inkscape-font-specification:'sans-serif, Normal';font-variant-ligatures:normal;font-variant-caps:normal;font-variant-numeric:normal;font-feature-settings:normal;text-align:start;letter-spacing:0px;word-spacing:0px;writing-mode:lr-tb;text-anchor:start;fill:#4d4d4d;fill-opacity:1;stroke:none;stroke-width:0.31750003px;stroke-linecap:butt;stroke-linejoin:miter;stroke-opacity:1" x="81.870453" y="-620.43872" id="text4602-3"><tspan sodipodi:role="line" id="tspan4669" x="81.870453" y="-620.43872" style="stroke-width:0.31750003px">undefined</tspan></text>
    <text xml:space="preserve" style="font-style:normal;font-variant:normal;font-weight:normal;font-stretch:normal;font-size:21.33333397px;line-height:25px;font-family:sans-serif;-inkscape-font-specification:'sans-serif, Normal';font-variant-ligatures:normal;font-variant-caps:normal;font-variant-numeric:normal;font-feature-settings:normal;text-align:start;letter-spacing:0px;word-spacing:0px;writing-mode:lr-tb;text-anchor:start;fill:#000000;fill-opacity:1;stroke:none;stroke-width:1px;stroke-linecap:butt;stroke-linejoin:miter;stroke-opacity:1" x="97.746178" y="-575.2323" id="text4972"><tspan sodipodi:role="line" id="tspan4970" x="97.746178" y="-575.2323">Temperature</tspan></text>
    <text xml:space="preserve" style="font-style:normal;font-variant:normal;font-weight:normal;font-stretch:normal;font-size:21.33333397px;line-height:25px;font-family:sans-serif;-inkscape-font-specification:'sans-serif, Normal';font-variant-ligatures:normal;font-variant-caps:normal;font-variant-numeric:normal;font-feature-settings:normal;text-align:start;letter-spacing:0px;word-spacing:0px;writing-mode:lr-tb;text-anchor:start;fill:#000000;fill-opacity:1;stroke:none;stroke-width:1px;stroke-linecap:butt;stroke-linejoin:miter;stroke-opacity:1" x="97.746178" y="-117.10318" id="text4972-0"><tspan sodipodi:role="line" id="tspan4970-4" x="97.746178" y="-117.10318">Humidity</tspan></text>
  </g>
</svg>
